<svg xmlns="http://www.w3.org/2000/svg" width="16" height="16" viewBox="0 0 16 16" aria-label="Retrospectives logo">
  <g fill="currentColor">
    <rect x="2" y="0" width="1" height="1" opacity="0.3765"/>
    <rect x="3" y="0" width="1" height="1" opacity="0.251"/>
    <rect x="4" y="0" width="1" height="1" opacity="0.0627"/>
    <rect x="0" y="1" width="1" height="1" opacity="0.0627"/>
    <rect x="1" y="1" width="1" height="1" opacity="0.6902"/>
    <rect x="2" y="1" width="1" height="1" opacity="0.6275"/>
    <rect x="3" y="1" width="1" height="1" opacity="0.7529"/>
    <rect x="4" y="1" width="2" height="1" opacity="0.9412"/>
    <rect x="6" y="1" width="1" height="1" opacity="0.7529"/>
    <rect x="7" y="1" width="1" height="1" opacity="0.502"/>
    <rect x="8" y="1" width="1" height="1" opacity="0.3137"/>
    <rect x="9" y="1" width="1" height="1" opacity="0.1255"/>
    <rect x="0" y="2" width="1" height="1" opacity="0.251"/>
    <rect x="1" y="2" width="1" height="1" opacity="0.6902"/>
    <rect x="5" y="2" width="1" height="1" opacity="0.0627"/>
    <rect x="6" y="2" width="1" height="1" opacity="0.251"/>
    <rect x="7" y="2" width="1" height="1" opacity="0.502"/>
    <rect x="8" y="2" width="1" height="1" opacity="0.6902"/>
    <rect x="9" y="2" width="1" height="1" opacity="0.8157"/>
    <rect x="10" y="2" width="1" height="1"/>
    <rect x="11" y="2" width="1" height="1" opacity="0.3137"/>
    <rect x="0" y="3" width="1" height="1" opacity="0.4392"/>
    <rect x="1" y="3" width="1" height="1" opacity="0.502"/>
    <rect x="10" y="3" width="1" height="1" opacity="0.0627"/>
    <rect x="11" y="3" width="1" height="1" opacity="0.8784"/>
    <rect x="12" y="3" width="1" height="1" opacity="0.0627"/>
    <rect x="0" y="4" width="1" height="1" opacity="0.6275"/>
    <rect x="1" y="4" width="1" height="1" opacity="0.3137"/>
    <rect x="11" y="4" width="1" height="1" opacity="0.8157"/>
    <rect x="12" y="4" width="1" height="1" opacity="0.1255"/>
    <rect x="0" y="5" width="1" height="1" opacity="0.8157"/>
    <rect x="1" y="5" width="1" height="1" opacity="0.1255"/>
    <rect x="11" y="5" width="1" height="1"/>
    <rect x="0" y="6" width="1" height="1" opacity="0.9412"/>
    <rect x="10" y="6" width="1" height="1" opacity="0.251"/>
    <rect x="11" y="6" width="1" height="1" opacity="0.8157"/>
    <rect x="12" y="6" width="1" height="1" opacity="0.251"/>
    <rect x="13" y="6" width="2" height="1" opacity="0.4392"/>
    <rect x="0" y="7" width="1" height="1" opacity="0.8157"/>
    <rect x="1" y="7" width="1" height="1" opacity="0.0627"/>
    <rect x="7" y="7" width="1" height="1" opacity="0.3137"/>
    <rect x="8" y="7" width="2" height="1" opacity="0.7529"/>
    <rect x="10" y="7" width="5" height="1"/>
    <rect x="15" y="7" width="1" height="1" opacity="0.502"/>
    <rect x="0" y="8" width="1" height="1" opacity="0.5647"/>
    <rect x="1" y="8" width="1" height="1" opacity="0.9412"/>
    <rect x="2" y="8" width="1" height="1" opacity="0.7529"/>
    <rect x="4" y="8" width="1" height="1" opacity="0.0627"/>
    <rect x="5" y="8" width="1" height="1" opacity="0.1882"/>
    <rect x="7" y="8" width="8" height="1"/>
    <rect x="15" y="8" width="1" height="1" opacity="0.7529"/>
    <rect x="2" y="9" width="1" height="1" opacity="0.9412"/>
    <rect x="3" y="9" width="1" height="1" opacity="0.1882"/>
    <rect x="4" y="9" width="1" height="1" opacity="0.8157"/>
    <rect x="5" y="9" width="1" height="1" opacity="0.7529"/>
    <rect x="6" y="9" width="1" height="1" opacity="0.9412"/>
    <rect x="7" y="9" width="8" height="1"/>
    <rect x="15" y="9" width="1" height="1" opacity="0.8157"/>
    <rect x="1" y="10" width="1" height="1" opacity="0.251"/>
    <rect x="2" y="10" width="1" height="1" opacity="0.9412"/>
    <rect x="3" y="10" width="1" height="1" opacity="0.8784"/>
    <rect x="4" y="10" width="1" height="1" opacity="0.3765"/>
    <rect x="7" y="10" width="1" height="1" opacity="0.8157"/>
    <rect x="8" y="10" width="8" height="1"/>
    <rect x="1" y="11" width="1" height="1" opacity="0.3765"/>
    <rect x="2" y="11" width="1" height="1" opacity="0.8157"/>
    <rect x="3" y="11" width="1" height="1" opacity="0.1882"/>
    <rect x="7" y="11" width="1" height="1" opacity="0.7529"/>
    <rect x="8" y="11" width="8" height="1"/>
    <rect x="1" y="12" width="1" height="1" opacity="0.251"/>
    <rect x="2" y="12" width="1" height="1" opacity="0.0627"/>
    <rect x="7" y="12" width="1" height="1" opacity="0.5647"/>
    <rect x="8" y="12" width="6" height="1"/>
    <rect x="14" y="12" width="1" height="1" opacity="0.8157"/>
    <rect x="15" y="12" width="1" height="1" opacity="0.4392"/>
    <rect x="7" y="13" width="1" height="1" opacity="0.0627"/>
    <rect x="8" y="13" width="2" height="1" opacity="0.4392"/>
    <rect x="10" y="13" width="1" height="1" opacity="0.251"/>
    <rect x="11" y="13" width="1" height="1" opacity="0.502"/>
    <rect x="12" y="13" width="2" height="1"/>
    <rect x="14" y="13" width="1" height="1" opacity="0.6275"/>
    <rect x="12" y="14" width="1" height="1" opacity="0.1882"/>
    <rect x="13" y="14" width="1" height="1" opacity="0.8784"/>
    <rect x="14" y="14" width="1" height="1" opacity="0.9412"/>
    <rect x="15" y="14" width="1" height="1" opacity="0.0627"/>
    <rect x="13" y="15" width="1" height="1" opacity="0.0627"/>
    <rect x="14" y="15" width="1" height="1" opacity="0.5647"/>
    <rect x="15" y="15" width="1" height="1" opacity="0.3765"/>
  </g>
</svg>
