<svg xmlns="http://www.w3.org/2000/svg" viewBox="0 0 202.944 144"><defs><style>.a{fill:#b2b2b2;}.b{fill:#5c2d91;}.c{fill:#e6e6e6;}.d{fill:#c8c8c8;}.e{fill:#fff;}.f{fill:#a6a6a6;}.g{fill:#939393;}.h{fill:#d40083;}.i{fill:#ffb900;}.j{fill:#ffa940;}.k{fill:#f57800;}.l{fill:#505050;}.m{fill:#b3d6f2;}.n{fill:#69afe5;}</style></defs><title>zerodata-no-work-scheduled</title><path class="a" d="M199.944,144H14.5a3.116,3.116,0,0,1-3.123-2.463A3,3,0,0,1,14.33,138H199.774a3.116,3.116,0,0,1,3.123,2.463A3,3,0,0,1,199.944,144Z"/><path class="b" d="M192.34,140.81H23.136a7.326,7.326,0,0,1-7.326-7.326V7.326A7.326,7.326,0,0,1,23.136,0h169.2a7.326,7.326,0,0,1,7.326,7.326V133.485A7.325,7.325,0,0,1,192.34,140.81Z"/><path class="c" d="M189.81,7h-165V135h165Z"/><path class="d" d="M189.81,118h-165v17h165Z"/><path class="e" d="M189.807,103.029V7H130.25C144.549,27.805,169.622,70.018,189.807,103.029Z"/><path class="d" d="M189.81,7h-165V28h165Z"/><path class="f" d="M106.81,7h1.917V135H106.81"/><path class="c" d="M129.76,7c3.464,5.04,9.56,14.161,14.06,21h45.989V7Z"/><path class="f" d="M53.81,21h-25v4h25Z"/><path class="f" d="M42.81,53h-14v4h14Z"/><path class="f" d="M42.81,76h-14v4h14Z"/><path class="f" d="M42.81,98h-14v4h14Z"/><path class="f" d="M125.81,53h-14v4h14Z"/><path class="f" d="M125.81,76h-14v4h14Z"/><path class="f" d="M125.81,98h-14v4h14Z"/><path class="g" d="M189.81,50h-165v1h165Z"/><path class="g" d="M189.81,73h-165v1h165Z"/><path class="g" d="M189.81,95h-165v1h165Z"/><path class="h" d="M11.818,63.624,13.4,56.46a.861.861,0,0,0-.656-1.027L2.63,53.2a.861.861,0,0,0-1.027.656L.021,61.021a.861.861,0,0,0,.656,1.027L10.79,64.28A.862.862,0,0,0,11.818,63.624Z"/><path class="i" d="M82.088,80.017,84.04,71.17,7.684,54.319,5.731,63.166Z"/><path class="j" d="M82.09,80.018l1.952-8.848,7.752,6.453Z"/><path class="k" d="M82.086,80.016l.944-4.276L6.673,58.889,5.73,63.165Z"/><path class="l" d="M87.574,74.11,91.8,77.626,86.51,78.931Z"/><path class="m" d="M11.438,64.417,13.39,55.57l-5.7-1.258L5.736,63.159Z"/><path class="n" d="M11.434,64.424,12.41,60l-5.7-1.258-.976,4.424Z"/></svg>